<svg width="48" height="48" viewBox="0 0 48 48" fill="none" xmlns="http://www.w3.org/2000/svg">
<g clip-path="url(#clip0_1_2539)">
<path d="M32.8813 6.73314L38.524 6.7442L32.8813 1.21436V6.73314Z" fill="currentColor"/>
<path d="M31.456 9.57562C30.6713 9.57422 30.0363 8.93775 30.0363 8.15297V0H6.2831C5.49719 0 4.86035 0.636844 4.86035 1.42275V26.7787C6.34132 26.1602 7.96535 25.8178 9.66832 25.8178C10.5095 25.8178 11.3313 25.9016 12.1264 26.0606C12.0278 25.8642 11.9765 25.6475 11.9765 25.4278C11.9765 24.6422 12.6134 24.0054 13.3989 24.0054H30.5339C31.3195 24.0054 31.9566 24.6423 31.9566 25.4277C31.9566 26.2136 31.3194 26.8505 30.5339 26.8505H14.644C19.0756 28.7786 22.1821 33.1987 22.1821 38.3316C22.1821 40.3241 21.7133 42.2087 20.8813 43.8826H38.2097C38.9956 43.8826 39.6324 43.2457 39.6324 42.4598V9.59175L31.456 9.57562ZM25.412 14.2361C25.412 15.0219 24.7753 15.6588 23.9898 15.6588H13.3987C12.6133 15.6588 11.9764 15.0219 11.9764 14.2361C11.9764 13.4505 12.6133 12.8134 13.3988 12.8134H23.9897C24.7752 12.8134 25.412 13.4502 25.412 14.2361ZM30.5339 21.2549H13.3989C12.6134 21.2549 11.9765 20.6177 11.9765 19.8322C11.9765 19.0462 12.6134 18.4094 13.3989 18.4094H30.5339C31.3195 18.4094 31.9566 19.0462 31.9566 19.8322C31.9566 20.6177 31.3198 21.2549 30.5339 21.2549Z" fill="currentColor"/>
<path d="M19.3371 38.3317C19.3371 33.0004 14.9996 28.6633 9.66834 28.6633C4.33744 28.6633 0 33.0004 0 38.3318C0 43.6629 4.33744 48 9.66834 48C14.9996 48 19.3371 43.6626 19.3371 38.3317ZM14.2358 40.4264L10.4963 43.102C10.2549 43.2748 9.9653 43.3676 9.66834 43.3675C9.36219 43.3675 9.06419 43.2688 8.81869 43.0858L5.22694 40.4103C4.59666 39.9408 4.46663 39.0494 4.93575 38.4196C5.40525 37.7893 6.29663 37.6589 6.92691 38.1284L8.24597 39.1109V34.5802C8.24597 33.7947 8.88281 33.1579 9.66834 33.1579C10.4543 33.1579 11.0911 33.7947 11.0911 34.5802V39.1777L12.5798 38.1123C13.2188 37.6553 14.1075 37.8025 14.5645 38.4415C15.022 39.0805 14.8744 39.969 14.2358 40.4264Z" fill="currentColor"/>
</g>
<defs>
<clipPath id="clip0_1_2539">
<rect width="48" height="48" fill="currentColor"/>
</clipPath>
</defs>
</svg>
