<svg width="42" height="42" viewBox="0 0 42 42" fill="none" xmlns="http://www.w3.org/2000/svg">
    <path d="M2.75734 15.3882C2.97811 16.1451 3.28449 16.875 3.67197 17.5599L2.5681 18.9521C2.20766 19.4072 2.24821 20.056 2.65371 20.466L4.55506 22.3673C4.96507 22.7774 5.61387 22.8134 6.06894 22.4529L7.45215 21.3581C8.16279 21.7674 8.92086 22.0881 9.70944 22.3132L9.9167 24.0929C9.98428 24.6697 10.4709 25.1022 11.0476 25.1022H13.7374C14.3141 25.1022 14.8007 24.6696 14.8683 24.0929L15.0666 22.3763C15.9136 22.1555 16.7246 21.8266 17.4861 21.3986L18.8242 22.4574C19.2793 22.8179 19.9281 22.7773 20.3381 22.3718L22.2395 20.4705C22.6495 20.0604 22.6855 19.4116 22.3251 18.9566L21.2843 17.6364C21.7168 16.8885 22.0547 16.091 22.28 15.2575L23.884 15.0728C24.4608 15.0052 24.8932 14.5186 24.8932 13.9419V11.252C24.8932 10.6753 24.4607 10.1887 23.884 10.1211L22.3025 9.93641C22.0862 9.11189 21.7619 8.32342 21.3474 7.5845L22.3206 6.35448C22.681 5.89942 22.6405 5.25061 22.235 4.84061L20.3381 2.94376C19.9281 2.53375 19.2793 2.49771 18.8243 2.85815L17.6303 3.80432C16.8553 3.34926 16.0263 3.00233 15.1567 2.76804L14.9765 1.22263C14.9089 0.645914 14.4223 0.213379 13.8456 0.213379H11.1558C10.5791 0.213379 10.0925 0.645914 10.0249 1.22263L9.84466 2.76804C8.95255 3.00684 8.101 3.36728 7.30802 3.84037L6.06898 2.85815C5.61392 2.49771 4.96512 2.53826 4.55511 2.94376L2.65375 4.84511C2.24375 5.25512 2.2077 5.90392 2.56815 6.35899L3.60443 7.67011C3.18992 8.41804 2.87453 9.21552 2.66727 10.0445L1.00922 10.2338C0.432505 10.3014 -3.05176e-05 10.788 -3.05176e-05 11.3647V14.0545C-3.05176e-05 14.6312 0.432505 15.1178 1.00922 15.1854L2.75734 15.3882ZM12.5029 8.1117C14.9539 8.1117 16.9499 10.1077 16.9499 12.5587C16.9499 15.0097 14.9539 17.0057 12.5029 17.0057C10.0519 17.0057 8.0559 15.0097 8.0559 12.5587C8.0559 10.1077 10.0519 8.1117 12.5029 8.1117Z" fill="currentColor"/>
    <path d="M39.0947 16.0505L37.6754 14.852C37.2384 14.4825 36.5941 14.5005 36.1796 14.8925L35.3956 15.6269C34.7333 15.307 34.0305 15.0818 33.305 14.9511L33.0843 13.8698C32.9717 13.3111 32.4536 12.9236 31.8858 12.9686L30.034 13.1263C29.4663 13.1759 29.0202 13.64 29.0022 14.2122L28.9662 15.3115C28.2543 15.5684 27.5829 15.9198 26.9702 16.3613L26.0331 15.7396C25.5554 15.4242 24.9202 15.5143 24.5507 15.9513L23.3523 17.3796C22.9828 17.8166 23.0008 18.4609 23.3927 18.8755L24.2128 19.7495C23.929 20.3886 23.7262 21.0606 23.609 21.75L22.4376 21.9888C21.8789 22.1014 21.4914 22.6195 21.5365 23.1873L21.6942 25.0391C21.7437 25.6068 22.2078 26.0528 22.78 26.0709L24.0461 26.1114C24.2759 26.7151 24.5778 27.2874 24.9427 27.8235L24.2353 28.8913C23.92 29.3689 24.0101 30.0042 24.4471 30.3736L25.8663 31.5721C26.3034 31.9416 26.9477 31.9236 27.3622 31.5316L28.2904 30.662C28.8986 30.9459 29.5384 31.1576 30.1962 31.2838L30.453 32.5543C30.5657 33.113 31.0838 33.5005 31.6515 33.4555L33.5033 33.2978C34.071 33.2482 34.5171 32.7842 34.5351 32.2119L34.5756 30.9683C35.2515 30.7295 35.8912 30.4051 36.4815 30.0042L37.5043 30.68C37.9819 30.9954 38.6171 30.9053 38.9866 30.4683L40.1851 29.049C40.5545 28.612 40.5365 27.9677 40.1445 27.5532L39.32 26.6791C39.6219 26.0393 39.8427 25.3635 39.9688 24.6696L41.0952 24.4398C41.6539 24.3272 42.0413 23.809 41.9963 23.2413L41.8386 21.3895C41.789 20.8218 41.325 20.3757 40.7528 20.3577L39.6219 20.3217C39.3883 19.6653 39.0718 19.0415 38.6802 18.4654L39.2974 17.5372C39.6218 17.0597 39.5317 16.4199 39.0947 16.0505ZM32.1156 26.7557C30.1151 26.9269 28.3489 25.4355 28.1822 23.4351C28.0109 21.4346 29.5024 19.6684 31.5028 19.5017C33.5032 19.3305 35.2695 20.8219 35.4362 22.8223C35.6074 24.8228 34.116 26.589 32.1156 26.7557ZM9.23624 31.7389C8.66853 31.7975 8.23149 32.275 8.22699 32.8473L8.21347 33.9872C8.20446 34.5594 8.62798 35.046 9.19569 35.1181L10.0337 35.2262C10.1734 35.7354 10.3716 36.222 10.6285 36.6815L10.0878 37.3484C9.72734 37.7944 9.75438 38.4342 10.1554 38.8442L10.9529 39.6597C11.3539 40.0697 11.9936 40.1148 12.4487 39.7634L13.12 39.2452C13.5931 39.5246 14.0932 39.7454 14.6158 39.8985L14.706 40.7636C14.7645 41.3313 15.2421 41.7683 15.8143 41.7728L16.9543 41.7864C17.5265 41.7954 18.0131 41.3719 18.0852 40.8041L18.1888 39.9841C18.7566 39.8444 19.2972 39.6327 19.8108 39.3534L20.4416 39.8625C20.8877 40.2229 21.5275 40.1959 21.9375 39.7949L22.753 38.9974C23.163 38.5965 23.2081 37.9566 22.8567 37.5016L22.3745 36.8752C22.6719 36.3796 22.9017 35.8525 23.0594 35.2983L23.8073 35.2217C24.375 35.1631 24.812 34.6855 24.8166 34.1133L24.83 32.9734C24.8391 32.4012 24.4156 31.9146 23.8479 31.8425L23.1179 31.7479C22.9782 31.1982 22.771 30.6665 22.5007 30.1709L22.9558 29.6122C23.3162 29.1662 23.2892 28.5264 22.8882 28.1164L22.0907 27.3008C21.8978 27.1027 21.6385 26.9825 21.3626 26.9634C21.0866 26.9443 20.8133 27.0275 20.5948 27.1972L20.0496 27.6162C19.5376 27.306 18.9859 27.0665 18.4096 26.9044L18.3375 26.197C18.2789 25.6292 17.8014 25.1922 17.2291 25.1877L16.0892 25.1742C15.517 25.1652 15.0304 25.5887 14.9583 26.1564L14.8682 26.8593C14.2733 27.0129 13.7019 27.2463 13.1696 27.5532L12.6064 27.0936C12.1604 26.7331 11.5205 26.7602 11.1105 27.1612L10.2905 27.9632C10.0923 28.1562 9.97222 28.4154 9.9531 28.6913C9.93399 28.9673 10.0172 29.2406 10.1869 29.459L10.669 30.0808C10.3896 30.5764 10.1688 31.1036 10.0247 31.6578L9.23624 31.7389ZM16.5938 30.4502C18.2294 30.4683 19.5404 31.8155 19.5225 33.451C19.5044 35.0865 18.1572 36.3976 16.5217 36.3796C14.8862 36.3616 13.5751 35.0144 13.5931 33.3789C13.6112 31.7434 14.9583 30.4323 16.5938 30.4502Z" fill="currentColor"/>
</svg>
