<svg width="36" height="46" viewBox="0 0 36 46" fill="none" xmlns="http://www.w3.org/2000/svg">
<path fill-rule="evenodd" clip-rule="evenodd" d="M33.0942 5.50991C34.1739 5.50991 35.0545 6.3905 35.0545 7.47022V43.5397C35.0545 44.6193 34.1739 45.5 33.0942 45.5H2.90575C1.82603 45.5 0.945435 44.6194 0.945435 43.5397V7.47022C0.945435 6.39059 1.82603 5.50991 2.90575 5.50991H7.06346V7.65162C7.06346 9.31362 8.41459 10.6647 10.0766 10.6647H25.9235C27.5854 10.6647 28.9367 9.31353 28.9367 7.65162V5.50991H33.0942ZM18.5044 28.5289H27.7647C28.352 28.5289 28.8282 28.0528 28.8282 27.4654C28.8282 26.8781 28.352 26.4019 27.7647 26.4019H18.5044C17.9171 26.4019 17.4409 26.8781 17.4409 27.4654C17.4409 28.0528 17.9171 28.5289 18.5044 28.5289ZM18.5044 37.8502H27.7647C28.352 37.8502 28.8282 37.374 28.8282 36.7867C28.8282 36.1993 28.352 35.7232 27.7647 35.7232H18.5044C17.9171 35.7232 17.4409 36.1993 17.4409 36.7867C17.4409 37.3741 17.9171 37.8502 18.5044 37.8502ZM18.5044 19.2075H27.7647C28.352 19.2075 28.8282 18.7314 28.8282 18.144C28.8282 17.5567 28.352 17.0805 27.7647 17.0805H18.5044C17.9171 17.0805 17.4409 17.5567 17.4409 18.144C17.4409 18.7315 17.9171 19.2075 18.5044 19.2075ZM6.99953 19.0607L8.61315 20.6742C9.02837 21.0895 9.70168 21.0895 10.1169 20.6742L10.1227 20.6683L13.9986 17.1508C14.4322 16.7562 14.4638 16.0848 14.0692 15.6512C13.6746 15.2176 13.0032 15.186 12.5696 15.5806L9.40178 18.4555L8.50328 17.557C8.08806 17.1418 7.41475 17.1418 6.99943 17.557C6.58431 17.9722 6.58431 18.6455 6.99953 19.0607ZM6.99953 37.7034L8.61315 39.3169C9.02837 39.7321 9.70168 39.7321 10.1169 39.3169L10.1227 39.3109L13.9986 35.7935C14.4322 35.3989 14.4638 34.7275 14.0692 34.2939C13.6746 33.8603 13.0032 33.8287 12.5696 34.2233L9.40178 37.0981L8.50328 36.1996C8.08806 35.7844 7.41475 35.7844 6.99943 36.1996C6.58431 36.6148 6.58431 37.2882 6.99953 37.7034ZM6.99953 28.3821L8.61315 29.9956C9.02837 30.4108 9.70168 30.4108 10.1169 29.9956L10.1227 29.9896L13.9986 26.4722C14.4322 26.0776 14.4638 25.4062 14.0692 24.9726C13.6746 24.539 13.0032 24.5074 12.5696 24.9019L9.40178 27.7767L8.50328 26.8783C8.08806 26.463 7.41475 26.463 6.99943 26.8783C6.58431 27.2935 6.58431 27.9668 6.99953 28.3821ZM10.0765 3.47469C9.58843 3.47469 9.19028 3.87275 9.19028 4.36091V7.65162C9.19028 8.13969 9.58843 8.53775 10.0765 8.53775H25.9234C26.4115 8.53775 26.8097 8.13959 26.8097 7.65162V4.36081C26.8097 3.87275 26.4116 3.47459 25.9234 3.47459H21.7814C21.3697 1.76797 19.8331 0.5 18 0.5C16.1669 0.5 14.6302 1.76797 14.2186 3.47469H10.0765Z" fill="white"/>
</svg>
