<svg width="48" height="48" viewBox="0 0 48 48" fill="none" xmlns="http://www.w3.org/2000/svg">
    <path d="M40.245 16.7624C38.0076 19.049 35.5223 21.079 32.835 22.8149C32.6325 22.9424 32.4375 23.0549 32.2425 23.1599C32.2425 23.1899 32.25 23.2199 32.25 23.2499C32.25 26.5124 29.235 29.9999 24.75 29.9999C20.1 29.9999 17.5275 27.3299 16.74 25.7549C16.5516 25.3849 16.4707 24.9695 16.5064 24.5559C16.5422 24.1423 16.6933 23.747 16.9425 23.4149C17.1515 23.132 17.4239 22.9019 17.7377 22.743C18.0516 22.5841 18.3982 22.5009 18.75 22.4999C18.8707 22.4987 18.9912 22.5087 19.11 22.5299C19.2365 22.5514 19.3643 22.5639 19.4925 22.5674C19.7475 22.5674 19.8675 22.5674 20.565 21.2549C21.36 19.7624 22.695 17.2499 26.25 17.2499C26.28 17.2499 26.3025 17.2574 26.3325 17.2574C26.4675 17.0249 26.5875 16.8224 26.685 16.6649C28.4208 13.9776 30.4509 11.4922 32.7375 9.25488C33.0375 8.95488 33.3375 8.66238 33.6375 8.37738C30.1894 5.85117 26.0245 4.49262 21.75 4.49988C16.3794 4.49988 11.2287 6.63336 7.43109 10.431C3.63348 14.2286 1.5 19.3792 1.5 24.7499C1.5 30.1205 3.63348 35.2712 7.43109 39.0688C11.2287 42.8664 16.3794 44.9999 21.75 44.9999C23.8875 44.9999 25.5675 44.2649 26.3625 42.9824C26.8575 42.1799 27.225 40.7774 26.1675 38.6624C25.7939 37.9779 25.595 37.2118 25.5884 36.4321C25.5819 35.6523 25.7679 34.883 26.13 34.1924C26.9175 32.9249 28.515 32.2499 30.75 32.2499C36.315 32.2499 42 31.3574 42 24.7499C42.0026 21.9752 41.4306 19.2301 40.32 16.6874L40.245 16.7624ZM22.5 8.24988C23.2417 8.24988 23.9667 8.46982 24.5834 8.88187C25.2001 9.29393 25.6807 9.8796 25.9645 10.5648C26.2484 11.25 26.3226 12.004 26.1779 12.7315C26.0333 13.4589 25.6761 14.1271 25.1516 14.6515C24.6272 15.176 23.959 15.5331 23.2316 15.6778C22.5042 15.8225 21.7502 15.7483 21.0649 15.4644C20.3797 15.1806 19.794 14.7 19.382 14.0833C18.9699 13.4666 18.75 12.7416 18.75 11.9999C18.7504 11.0054 19.1456 10.0518 19.8488 9.34867C20.552 8.6455 21.5056 8.25028 22.5 8.24988ZM12.75 13.4999C13.4917 13.4999 14.2167 13.7198 14.8334 14.1319C15.4501 14.5439 15.9307 15.1296 16.2145 15.8148C16.4984 16.5 16.5726 17.254 16.4279 17.9815C16.2833 18.7089 15.9261 19.3771 15.4017 19.9015C14.8772 20.426 14.209 20.7831 13.4816 20.9278C12.7542 21.0725 12.0002 20.9983 11.3149 20.7144C10.6297 20.4306 10.044 19.95 9.63199 19.3333C9.21993 18.7166 9 17.9916 9 17.2499C9.0004 16.2554 9.39561 15.3018 10.0988 14.5987C10.802 13.8955 11.7556 13.5003 12.75 13.4999ZM10.5 31.4999C9.75832 31.4999 9.0333 31.2799 8.41661 30.8679C7.79993 30.4558 7.31928 29.8702 7.03545 29.1849C6.75162 28.4997 6.67736 27.7457 6.82205 27.0183C6.96675 26.2909 7.3239 25.6227 7.84835 25.0982C8.3728 24.5738 9.04098 24.2166 9.76841 24.0719C10.4958 23.9272 11.2498 24.0015 11.9351 24.2853C12.6203 24.5692 13.206 25.0498 13.618 25.6665C14.0301 26.2832 14.25 27.0082 14.25 27.7499C14.2496 28.7443 13.8544 29.6979 13.1512 30.4011C12.448 31.1043 11.4944 31.4995 10.5 31.4999ZM17.25 39.7499C16.5083 39.7499 15.7833 39.5299 15.1666 39.1179C14.5499 38.7058 14.0693 38.1202 13.7855 37.4349C13.5016 36.7497 13.4274 35.9957 13.5721 35.2683C13.7167 34.5409 14.0739 33.8727 14.5983 33.3482C15.1228 32.8238 15.791 32.4666 16.5184 32.3219C17.2458 32.1772 17.9998 32.2515 18.6851 32.5353C19.3703 32.8192 19.956 33.2998 20.368 33.9165C20.7801 34.5332 21 35.2582 21 35.9999C20.9996 36.9943 20.6044 37.9479 19.9012 38.6511C19.198 39.3543 18.2444 39.7495 17.25 39.7499ZM32.0025 21.5624C31.7185 20.5992 31.1976 19.7225 30.4875 19.0124C29.7774 18.3023 28.9007 17.7814 27.9375 17.4974L27.96 17.4524C28.2075 17.0474 28.485 16.6274 28.785 16.1924C29.8243 16.5685 30.7682 17.1686 31.5497 17.9502C32.3313 18.7317 32.9314 19.6756 33.3075 20.7149C32.8725 21.0149 32.4525 21.2924 32.0475 21.5399L32.0025 21.5624ZM45.0225 8.56488C43.3476 11.1532 41.3879 13.5456 39.18 15.6974C37.7305 17.1612 36.1872 18.5291 34.56 19.7924C33.6428 17.6002 31.8997 15.8571 29.7075 14.9399C30.9708 13.3126 32.3387 11.7694 33.8025 10.3199C35.9543 8.11202 38.3467 6.15229 40.935 4.47738C43.4775 2.91738 45.1425 2.59488 46.02 3.47988C46.905 4.35738 46.5825 6.02238 45.0225 8.56488ZM30.75 23.2499C30.75 25.7849 28.3387 28.4999 24.75 28.4999C19.8428 28.4999 18.1485 25.2246 18.0788 25.0851C18.0169 24.9613 17.9906 24.8228 18.0026 24.685C18.0146 24.5471 18.0645 24.4153 18.1468 24.304C18.2291 24.1928 18.3405 24.1065 18.4688 24.0546C18.5971 24.0028 18.7373 23.9875 18.8738 24.0104C20.5613 24.2901 21.0667 23.5026 21.8865 21.9636C22.6485 20.5319 23.5965 18.7499 26.25 18.7499C27.443 18.7513 28.5868 19.2258 29.4304 20.0694C30.2741 20.913 30.7486 22.0568 30.75 23.2499Z" fill="white"/>
</svg>